<svg xmlns="http://www.w3.org/2000/svg" xmlns:xlink="http://www.w3.org/1999/xlink" width="30" height="30" viewBox="0 0 30 30">
  <defs>
    <clipPath id="clip-path">
      <rect id="사각형_332" data-name="사각형 332" width="30" height="30" transform="translate(0 0.332)" fill="#242424"/>
    </clipPath>
  </defs>
  <g id="그룹_42" data-name="그룹 42" transform="translate(-176 -3365)">
    <g id="마스크_그룹_227" data-name="마스크 그룹 227" transform="translate(176 3364.667)" clip-path="url(#clip-path)">
      <g id="layer1" transform="translate(0.017 0.223)">
        <path id="패스_239" data-name="패스 239" d="M2.736,34.146c-.024-.024-.049-3.891-.049-8.64V16.94L2.173,15.2c-.441-1.468-.514-1.762-.441-1.811.1-.1,27.289-9.374,27.558-9.4a.289.289,0,0,1,.294.073A21.627,21.627,0,0,1,30.612,7.15c.049.318.049.416-.024.465-.049.049-5.972,2.1-13.192,4.6S4.253,16.769,4.229,16.793s6.168.049,13.8.073l13.853.024V34.17l-14.562.024C9.319,34.195,2.736,34.17,2.736,34.146ZM7.459,15.031c.636-.245,1.175-.465,1.2-.489s-2.2-2.227-2.252-2.227c-.073,0-2.252.783-2.252.808,0,.049,2.08,2.374,2.1,2.374S6.823,15.3,7.459,15.031Zm4.919-1.787A8.178,8.178,0,0,0,13.5,12.8c0-.073-1.933-2.178-2.007-2.2s-2.056.538-2.129.587A24.82,24.82,0,0,0,11.2,13.66,10.47,10.47,0,0,0,12.379,13.244Zm5.507-1.86c.587-.22,1.052-.441,1.052-.441,0-.024-1.542-1.811-1.86-2.154-.073-.073-.22-.024-1.2.294a6.686,6.686,0,0,0-1.126.416c0,.049,2.007,2.3,2.056,2.3C16.809,11.776,17.3,11.6,17.885,11.384ZM23.49,9.6a11.285,11.285,0,0,0,1.175-.343c0-.049-1.982-2.374-2.08-2.423a3.566,3.566,0,0,0-.955.294c-.489.171-.906.318-.955.318-.294,0-.245.073.636,1.3.489.661.906,1.2.93,1.2C22.291,9.891,22.854,9.769,23.49,9.6Zm4.846-1.64c.587-.22,1.077-.416,1.077-.416,0-.049-2.154-2.35-2.2-2.374-.073-.024-2.2.612-2.2.636,0,.049,2.178,2.521,2.227,2.521Z" transform="translate(-1.707 -3.984)" fill="#242424"/>
      </g>
    </g>
    <text id="_6" data-name="6" transform="translate(188 3390)" fill="#fff" font-size="10" font-family="SpoqaHanSansNeo-Medium, Spoqa Han Sans Neo" font-weight="500"><tspan x="0" y="0">6</tspan></text>
  </g>
</svg>
