<?xml version="1.0" encoding="utf-8"?>
<!-- Generator: Adobe Illustrator 25.0.1, SVG Export Plug-In . SVG Version: 6.00 Build 0)  -->
<svg version="1.1" id="Layer_1" xmlns="http://www.w3.org/2000/svg" xmlns:xlink="http://www.w3.org/1999/xlink" x="0px" y="0px"
	 viewBox="0 0 117.6 227.1" style="enable-background:new 0 0 117.6 227.1;" xml:space="preserve">
<style type="text/css">
	.Drop_x0020_Shadow{fill:none;}
	.Outer_x0020_Glow_x0020_5_x0020_pt{fill:none;}
	.Blue_x0020_Neon{fill:none;stroke:#8AACDA;stroke-width:7;stroke-linecap:round;stroke-linejoin:round;}
	.Chrome_x0020_Highlight{fill:url(#SVGID_1_);stroke:#FFFFFF;stroke-width:0.3629;stroke-miterlimit:1;}
	.Jive_GS{fill:#FFDD00;}
	.Alyssa_GS{fill:#A6D0E4;}
	.st0{fill:none;}
	.st1{fill:#030303;stroke:#030303;stroke-width:2.026713e-02;}
	.st2{fill-rule:evenodd;clip-rule:evenodd;}
	.st3{fill:#0A0B09;}
</style>
<linearGradient id="SVGID_1_" gradientUnits="userSpaceOnUse" x1="-645.605" y1="-457" x2="-645.605" y2="-458">
	<stop  offset="0" style="stop-color:#656565"/>
	<stop  offset="0.618" style="stop-color:#1B1B1B"/>
	<stop  offset="0.6292" style="stop-color:#545454"/>
	<stop  offset="0.9831" style="stop-color:#3E3E3E"/>
</linearGradient>
<g>
	<path d="M90.4,42.8h4.8v41.5c-19.7,0-39.4,0-59.1,0c-1.4,0-2.2,0.2-2.2,1.8c0,0.8-0.3,1.7-0.4,2.6c-0.5,2.9-0.5,2.8-3.5,3.5
		c-4.1,0.9-8.1,1.7-12.2,2.6c-0.9,0.2-1.9,0.7-2.4,1.3c-1.5,2.1-3.8,2.2-6,2.6c-2.8,0.5-5.5,1-8.4,1.6c-0.3-2.4-0.6-4.6-0.9-7
		c3.3-0.7,6.4-1.3,9.6-1.9c1.9-0.6,3.5-0.4,5.2,0.6c0.6,0.4,1.5,0.4,2.2,0.3c4.3-0.8,8.6-1.6,12.8-2.4c0.7-0.1,1.2-0.4,1.2-1.2
		c0.1-1.4,0.4-2.8,0.6-4.4h-6.4v-25c-1.8,0.3-3.6-0.8-4.8,1.4c-0.7,1.2-2.2,0.9-2.8-0.4c-1.6-3.3-3.1-6.5-4.7-9.8
		c2.7-0.7,4.8,0.5,7.1,1.1c1.6,0.5,3.2,0.6,4.8,0.9c0.6-1.7,0.2-2.4-1.3-2.9C15.4,47.1,9.9,39.3,10,30.6
		c0.2-19.4,25.3-27.1,36.6-11.4c0.5,0.6,0.7,1.5,2,1.2c1.3-0.3,1.9-0.6,2.2-2c5.9-24.1,40.2-24.8,47-0.8c2.6,9.3-0.2,18.4-7.5,24.8
		C90.3,42.6,90.3,42.6,90.4,42.8z M86.3,23.6c0-6.8-5.3-12.3-12.2-12.4c-6.7-0.1-12.4,5.4-12.4,12.2c-0.1,6.8,5.4,12.3,12.2,12.4
		C80.7,35.9,86.2,30.4,86.3,23.6z M30.3,20c-5.6,0-10,4.3-10,9.9c0.5,13.3,19.3,13.3,20,0C40.3,24.4,35.9,20,30.3,20z M58.3,42.8
		c-1.5-1.8-2.9-3.5-4.2-5.2c-0.8-1-4-1.3-4.6-0.2c-1,1.7-1.7,3.6-2.6,5.5C50.7,42.8,54.5,42.8,58.3,42.8z M88.1,80.2
		c1.2,0,2.1-1,2.1-2.2c-0.2-2.8-4.1-2.6-4.2,0.2C86.1,79.3,87.1,80.2,88.1,80.2z"/>
	<path d="M65.6,227.1h-3.9c-2.5-39.4-4.9-78.7-7.3-118.1c-0.2,0-0.2,0-0.4,0c-2.8,10.3-5.6,20.5-8.4,30.8c-0.3,1-0.5,2,0,3.2
		c0.6,1.3,0.1,3.1,0.1,4.8c-0.8,0-1.6,0-2.4,0c-6.5,23.8-13,47.6-19.5,71.5c-1.1-0.3-2-0.5-3.2-0.8c4.6-23.1,9.3-46.2,14-69.3
		c0.1-0.5,0.7-1.3-0.5-1.5c-0.1,0-0.1-0.4-0.1-0.6c0-1.5,0-3.1,0-4.7c0.7-0.1,1.3-0.1,2-0.2c3.2-15.9,6.4-31.8,9.7-47.8
		c-0.7-0.1-1.4-0.2-2.1-0.2c0-2.7,0-5.4,0-8.2c13.2,0,26.4,0,39.7,0c0,2.7,0,5.5,0,8.3c-0.5,0.1-1.1,0.1-1.8,0.2
		c3.2,15.9,6.4,31.8,9.7,47.8c0.8,0,1.7,0.1,2.6,0.1v5.3c-0.4,0.1-0.9,0.1-1.5,0.2c4.8,24,9.7,48,14.5,72c-1,0.3-2,0.5-3.1,0.8
		c-6.6-23.8-13-47.6-19.5-71.5c-0.2-0.9-0.4-1.9-1.5-1.6c-1-11.7-5.5-22.6-8.1-33.8c-0.7-3.1-1.6-6.1-2.8-9
		C69.9,145.5,67.7,186.2,65.6,227.1z M68.5,94.1c-2.8,0-5.4,0-8,0c-2.9,0-3,0-2.9,3c0.2,3.5,0.4,7,0.6,10.6
		c0.7,11.6,1.4,23.2,2.2,34.8c1.9,0,3.7,0,5.6,0C66.9,126.4,67.7,110.4,68.5,94.1z M87.8,142.1c-2.9-15.5-6.3-31-9.3-46.5
		c-0.1-0.5-0.6-1.3-0.9-1.3c-1.5-0.1-3-0.1-4.7-0.1c4,15.6,8.4,31,12.5,46.6C85.8,142.2,86.5,142.4,87.8,142.1z M39.7,142
		c1.4,0.4,2,0.1,2.3-1.3c3.4-12.6,6.8-25.2,10.3-37.8c0.5-2,1.1-3.9,1.3-6c0.2-2.7,0.1-2.7-2.6-2.8c-1.3,0-1.7,0.3-2,1.6
		C45.9,111.3,42.7,126.6,39.7,142z M60.7,148.3c0.9,13.9,1.7,27.7,2.6,41.5c0.2,0,0.1,0,0.4,0c0.7-13.8,1.4-27.6,2.1-41.5H60.7z
		 M87.3,147.7c1.8,6.8,3.6,13.4,5.4,20c0.2,0,0.1,0,0.3-0.1c-1.3-6.6-2.7-13.3-4-19.9H87.3z M40,147.8c-1.1-0.4-1.6,0-1.8,1.1
		c-1,5.3-2.2,10.6-3.1,16c0.1,0,0.2,0,0.3,0.1C36.9,159.2,38.5,153.5,40,147.8z"/>
	<path d="M95.8,47.6c2.7,0,5.3,0.1,8,0c1,0,2-0.3,2.8-0.8c3.8-2.1,7.2-4.4,11-6.6c0,11.2,0,22.2,0,33.3c-3.8-2-7.3-4.4-11-6.5
		c-0.8-0.5-1.9-0.8-2.8-0.8c-2.6-0.1-5.3,0-8,0C95.8,60,95.8,53.9,95.8,47.6z"/>
	<path d="M73.4,19.4c-1.1,0-2-1-1.9-2c0.2-1.1,0.7-1.8,1.9-1.7c1.2,0,1.8,0.7,1.9,1.8C75.4,18.5,74.5,19.4,73.4,19.4z"/>
	<path d="M80.7,28.1c0,1.1-0.8,2-1.9,2c-2.5,0-2.5-3.7,0-3.8C79.9,26.3,80.7,27.1,80.7,28.1z"/>
	<path d="M71.5,31.3c-1.2-0.1-1.8-0.7-1.9-1.9c-0.1-2.5,3.9-2.5,3.7,0.1C73.3,30.7,72.5,31.1,71.5,31.3z"/>
	<path d="M81.5,21.3c-0.1,1-0.6,1.7-1.8,1.8c-2.6,0-2.7-3.6-0.1-3.7C80.6,19.4,81.5,20.2,81.5,21.3z"/>
	<path d="M68.6,20.9c1.2,0,1.9,0.6,2,1.8c0.2,2.6-3.7,2.6-3.7,0.1C66.9,21.7,67.5,21,68.6,20.9z"/>
	<path d="M29.8,27c-0.8,0-1.6-0.8-1.4-1.5c0.1-0.8,0.6-1.4,1.5-1.3c0.9,0,1.4,0.6,1.4,1.4C31.4,26.3,30.6,27,29.8,27z"/>
	<path d="M35.5,33.7c0,0.8-0.6,1.6-1.4,1.5c-1.9,0-1.9-2.9,0-2.9C34.8,32.3,35.5,32.9,35.5,33.7z"/>
	<path d="M28.3,36.2c-0.9-0.1-1.4-0.6-1.5-1.5c-0.1-2,3.1-2,2.9,0.1C29.7,35.8,29.1,36.1,28.3,36.2z"/>
	<path d="M36.1,28.4c-0.1,0.8-0.5,1.3-1.4,1.4c-2.1,0-2.1-2.8-0.1-2.9C35.4,26.9,36.1,27.6,36.1,28.4z"/>
	<path d="M26.1,28.1c0.9,0,1.5,0.5,1.5,1.4c0.2,2-2.9,2-2.9,0.1C24.8,28.7,25.2,28.2,26.1,28.1z"/>
</g>
</svg>
